<?xml version="1.0" encoding="UTF-8" standalone="no"?>
<svg
   xmlns:dc="http://purl.org/dc/elements/1.1/"
   xmlns:cc="http://creativecommons.org/ns#"
   xmlns:rdf="http://www.w3.org/1999/02/22-rdf-syntax-ns#"
   xmlns:svg="http://www.w3.org/2000/svg"
   xmlns="http://www.w3.org/2000/svg"
   height="46.991798"
   width="26.863159"
   id="svg6"
   viewBox="0 0 26.863159 46.991798"
   version="1.0">
  <metadata
     id="metadata12">
    <rdf:RDF>
      <cc:Work
         rdf:about="">
        <dc:format>image/svg+xml</dc:format>
        <dc:type
           rdf:resource="http://purl.org/dc/dcmitype/StillImage" />
        <dc:title></dc:title>
      </cc:Work>
    </rdf:RDF>
  </metadata>
  <defs
     id="defs10" />
  <g
     transform="matrix(-0.00367516,0,0,-0.00367516,26.88012,47.028548)"
     id="g4">
    <path
       id="path2"
       stroke-width="param(outline-width)"
       stroke-opacity="param(outline-opacity)"
       stroke="param(outline)"
       fill-opacity="param(fill-opacity)"
       fill="param(fill)"
       d="m 3480,12794 c -25,-2 -101,-9 -170,-14 C 2092,12674 969,11911 406,10806 168,10340 43,9877 10,9337 -62,8177 588,6156 1960,3275 2164,2849 2653,1875 2898,1410 3212,813 3649,11 3660,10 c 5,0 260,456 416,745 1552,2875 2655,5432 3054,7079 131,543 184,921 184,1316 0,569 -114,1067 -359,1577 -552,1148 -1661,1923 -2935,2053 -112,11 -465,21 -540,14 z" />
  </g>
</svg>
