<svg xmlns="http://www.w3.org/2000/svg" viewBox="0 0 25.9873 48"><title>Asset 730</title><g id="Layer_2" data-name="Layer 2"><g id="Icons"><path class="cls-1" d="M12.99121,10C5.46387,10,0,15.04688,0,22a2,2,0,0,0,4,0,7.84807,7.84807,0,0,1,3.99121-7V46a2,2,0,0,0,4,0V31h2V46a2,2,0,1,0,4,0V14.9986A7.84744,7.84744,0,0,1,21.9873,22a2,2,0,0,0,4,0C25.9873,15.04688,20.52148,10,12.99121,10Z" fill="param(fill)" fill-opacity="param(fill-opacity)" stroke="param(outline)" stroke-opacity="param(outline-opacity)" stroke-width="param(outline-width)"/><circle class="cls-1" cx="12.99121" cy="4" r="4" fill="param(fill)" fill-opacity="param(fill-opacity)" stroke="param(outline)" stroke-opacity="param(outline-opacity)" stroke-width="param(outline-width)"/></g></g></svg>