<svg xmlns="http://www.w3.org/2000/svg" viewBox="0 0 48 25.99999"><title>Asset 838</title><g id="Layer_2" data-name="Layer 2"><g id="Icons"><path class="cls-1" d="M45,20H3a3,3,0,0,0,0,6H45a3,3,0,0,0,0-6Z" fill="param(fill)" fill-opacity="param(fill-opacity)" stroke="param(outline)" stroke-opacity="param(outline-opacity)" stroke-width="param(outline-width)"/><path class="cls-1" d="M15,17H45L34.68481.4431A.91289.91289,0,0,0,33,1.01561V14L24.68481.4431A.91289.91289,0,0,0,23,1.01561V14L14.68481.4431A.91289.91289,0,0,0,13,1.01561V14L4.68481.4431A.91289.91289,0,0,0,3,1.01561V17H15Z" fill="param(fill)" fill-opacity="param(fill-opacity)" stroke="param(outline)" stroke-opacity="param(outline-opacity)" stroke-width="param(outline-width)"/></g></g></svg>