<svg xmlns="http://www.w3.org/2000/svg" viewBox="0 0 42.00018 42"><title>Asset 937</title><g id="Layer_2" data-name="Layer 2"><g id="Icons"><path class="cls-1" d="M37,0H33V10a1,1,0,0,1-1,1H6a1,1,0,0,1-1-1V0H2A2,2,0,0,0,0,2V40a2,2,0,0,0,2,2H40.00018a2,2,0,0,0,2-2V5Zm0,36a1,1,0,0,1-1,1H6a1,1,0,0,1-1-1V18a1,1,0,0,1,1-1H36a1,1,0,0,1,1,1Z" fill="param(fill)" fill-opacity="param(fill-opacity)" stroke="param(outline)" stroke-opacity="param(outline-opacity)" stroke-width="param(outline-width)"/><rect class="cls-1" x="7" width="24" height="9" fill="param(fill)" fill-opacity="param(fill-opacity)" stroke="param(outline)" stroke-opacity="param(outline-opacity)" stroke-width="param(outline-width)"/></g></g></svg>