<svg xmlns="http://www.w3.org/2000/svg" viewBox="0 0 48 48"><title>Asset 761</title><g id="Layer_2" data-name="Layer 2"><g id="Icons"><path class="cls-1" d="M10,39a2.0001,2.0001,0,0,0,2-2V19.82812l4.58594,4.58594a1.99978,1.99978,0,0,0,2.82812-2.82812l-8-8a1.99926,1.99926,0,0,0-2.82812,0l-8,8a1.99978,1.99978,0,0,0,2.82812,2.82812L8,19.82812V37A2.0001,2.0001,0,0,0,10,39Z" fill="param(fill)" fill-opacity="param(fill-opacity)" stroke="param(outline)" stroke-opacity="param(outline-opacity)" stroke-width="param(outline-width)"/><path class="cls-1" d="M39.41406,13.58594a1.99926,1.99926,0,0,0-2.82812,0l-8,8a1.99978,1.99978,0,0,0,2.82812,2.82812L36,19.82812V37a2,2,0,0,0,4,0V19.82812l4.58594,4.58594a1.99978,1.99978,0,0,0,2.82812-2.82812Z" fill="param(fill)" fill-opacity="param(fill-opacity)" stroke="param(outline)" stroke-opacity="param(outline-opacity)" stroke-width="param(outline-width)"/><rect class="cls-1" y="44" width="48" height="4" rx="1" fill="param(fill)" fill-opacity="param(fill-opacity)" stroke="param(outline)" stroke-opacity="param(outline-opacity)" stroke-width="param(outline-width)"/><rect class="cls-1" width="48" height="10" rx="1" fill="param(fill)" fill-opacity="param(fill-opacity)" stroke="param(outline)" stroke-opacity="param(outline-opacity)" stroke-width="param(outline-width)"/></g></g></svg>